<svg id="Layer_1" enable-background="new 0 0 512 512" height="512" viewBox="0 0 512 512" width="512" xmlns="http://www.w3.org/2000/svg"><g><path d="m317.08 332.86-61.15-62.25-61.14 62.23c-3.88 3.95-10.26 3.89-14.07-.12-3.6-3.8-3.57-9.75.06-13.52l61.01-63.22-60.96-62.5c-3.66-3.75-3.7-9.72-.1-13.52 3.8-4.01 10.16-4.06 14.03-.12l61.16 62.25 61.17-62.92c3.87-3.98 10.25-3.96 14.1.02 3.68 3.81 3.67 9.86-.02 13.67l-61.36 63.12 61.35 63.1c3.71 3.81 3.72 9.88.02 13.7-3.84 4-10.22 4.03-14.1.08z"/></g></svg>